<?xml version="1.0" encoding="UTF-8" standalone="no"?>
<svg
   xmlns:dc="http://purl.org/dc/elements/1.1/"
   xmlns:cc="http://creativecommons.org/ns#"
   xmlns:rdf="http://www.w3.org/1999/02/22-rdf-syntax-ns#"
   xmlns:svg="http://www.w3.org/2000/svg"
   xmlns="http://www.w3.org/2000/svg"
   xmlns:sodipodi="http://sodipodi.sourceforge.net/DTD/sodipodi-0.dtd"
   xmlns:inkscape="http://www.inkscape.org/namespaces/inkscape"
   width="7.9375mm"
   height="7.9375mm"
   viewBox="0 0 7.9375 7.9375"
   version="1.1"
   id="svg8"
   inkscape:version="1.0.2 (e86c870879, 2021-01-15)"
   sodipodi:docname="favicon.svg">
  <defs
     id="defs2" />
  <sodipodi:namedview
     id="base"
     pagecolor="#ffffff"
     bordercolor="#666666"
     borderopacity="1.0"
     inkscape:pageopacity="0.0"
     inkscape:pageshadow="2"
     inkscape:zoom="2.8"
     inkscape:cx="-37.020221"
     inkscape:cy="15.576167"
     inkscape:document-units="mm"
     inkscape:current-layer="layer1"
     inkscape:document-rotation="0"
     showgrid="false"
     inkscape:window-width="1920"
     inkscape:window-height="1023"
     inkscape:window-x="0"
     inkscape:window-y="0"
     inkscape:window-maximized="1"
     showguides="true"
     inkscape:guide-bbox="true" />
  <metadata
     id="metadata5">
    <rdf:RDF>
      <cc:Work
         rdf:about="">
        <dc:format>image/svg+xml</dc:format>
        <dc:type
           rdf:resource="http://purl.org/dc/dcmitype/StillImage" />
        <dc:title />
      </cc:Work>
    </rdf:RDF>
  </metadata>
  <g
     inkscape:label="Layer 1"
     inkscape:groupmode="layer"
     id="layer1"
     transform="translate(-81.722237,-67.155769)">
    <rect
       id="rect14"
       width="7.9375"
       height="7.9375"
       x="81.722237"
       y="67.155769"
       style="fill:#75ff83;fill-opacity:1;stroke-width:0.0661455" />
    <g
       aria-label="C19"
       id="text12"
       style="font-style:normal;font-variant:normal;font-weight:800;font-stretch:normal;font-size:15.1387px;line-height:1.25;font-family:Montserrat;-inkscape-font-specification:'Montserrat, Ultra-Bold';font-variant-ligatures:normal;font-variant-caps:normal;font-variant-numeric:normal;font-variant-east-asian:normal;fill:#000000;fill-opacity:1;stroke:none;stroke-width:0.378469"
       transform="matrix(0.26967871,0,0,0.26967871,59.447052,48.004938)">
      <path
         d="m 90.06349,88.466313 c 1.952892,0 3.527317,-0.711518 4.556749,-1.998308 l -1.907476,-1.725812 c -0.666103,0.802351 -1.483593,1.241374 -2.497886,1.241374 -1.74095,0 -2.952046,-1.211096 -2.952046,-3.02774 0,-1.816644 1.211096,-3.02774 2.952046,-3.02774 1.014293,0 1.831783,0.439022 2.497886,1.241373 l 1.907476,-1.725811 c -1.029432,-1.28679 -2.603857,-1.998309 -4.556749,-1.998309 -3.360791,0 -5.828399,2.285944 -5.828399,5.510487 0,3.224543 2.467608,5.510486 5.828399,5.510486 z"
         style="font-style:normal;font-variant:normal;font-weight:800;font-stretch:normal;font-size:15.1387px;font-family:Montserrat;-inkscape-font-specification:'Montserrat, Ultra-Bold';font-variant-ligatures:normal;font-variant-caps:normal;font-variant-numeric:normal;font-variant-east-asian:normal;stroke-width:0.378469"
         id="path839" />
      <path
         d="m 95.134913,77.657282 v 2.316221 h 1.968031 v 8.280869 h 2.997466 v -10.59709 z"
         style="font-style:normal;font-variant:normal;font-weight:800;font-stretch:normal;font-size:15.1387px;font-family:Montserrat;-inkscape-font-specification:'Montserrat, Ultra-Bold';font-variant-ligatures:normal;font-variant-caps:normal;font-variant-numeric:normal;font-variant-east-asian:normal;stroke-width:0.378469"
         id="path841" />
      <path
         d="m 105.56546,77.44534 c -2.30108,0 -4.14801,1.407899 -4.14801,3.618149 0,2.028586 1.65012,3.345653 3.64843,3.345653 0.99916,0 1.78637,-0.272497 2.37678,-0.772074 -0.16653,1.604702 -1.16568,2.45247 -2.66441,2.45247 -0.68125,0 -1.34735,-0.12111 -1.9529,-0.544994 l -1.08998,2.149696 c 0.77207,0.499577 1.92261,0.772073 3.10343,0.772073 3.36079,0 5.64674,-2.104279 5.64674,-5.798121 0,-3.436485 -1.93776,-5.222852 -4.92008,-5.222852 z m 0.21194,4.814107 c -0.86291,0 -1.45331,-0.514716 -1.45331,-1.332206 0,-0.832628 0.5904,-1.347344 1.43817,-1.347344 0.90832,0 1.48359,0.544993 1.48359,1.332205 0,0.802351 -0.60554,1.347345 -1.46845,1.347345 z"
         style="font-style:normal;font-variant:normal;font-weight:800;font-stretch:normal;font-size:15.1387px;font-family:Montserrat;-inkscape-font-specification:'Montserrat, Ultra-Bold';font-variant-ligatures:normal;font-variant-caps:normal;font-variant-numeric:normal;font-variant-east-asian:normal;stroke-width:0.378469"
         id="path843" />
    </g>
    <rect
       style="fill:#000000;stroke-width:0.359887"
       id="rect835"
       width="7.0634313"
       height="0.66779387"
       x="82.147461"
       y="72.760696" />
    <rect
       style="fill:#000000;stroke-width:0.18359"
       id="rect841"
       width="7.0634313"
       height="0.17378278"
       x="82.147461"
       y="72.27037" />
  </g>
</svg>
